Coordinates
version=1
nRows=54
nColumns=12
inDegrees=yes

Units are S.I. units (second, meters, Newtons, ...)
Angles are in degrees

endheader
time	SC_y	SC_z	SC_x	AC_y	AC_z	AC_x	GH_y	GH_z	GH_yy	EL_x	PS_y
       0.0              -30.98          26.64          59.73          43.67          4.028         -3.623          1.591          54.88         -59.65          66.13          133.6
   0.01737              -30.98          26.64          59.72          43.67          4.029         -3.624           1.61          54.88         -59.65          66.13          133.6
   0.03474              -30.98          26.64          59.71          43.67           4.03         -3.625          1.631          54.88         -59.66          66.12          133.6
   0.05211              -30.99          26.65          59.71          43.67          4.031         -3.626          1.653          54.88         -59.66          66.11          133.6
   0.06948              -30.99          26.65           59.7          43.66          4.032         -3.628          1.676          54.88         -59.66           66.1          133.6
   0.08685              -30.99          26.65          59.69          43.66          4.033         -3.629          1.701          54.87         -59.67          66.09          133.6
    0.1042              -30.99          26.65          59.68          43.66          4.034         -3.631          1.727          54.87         -59.67          66.09          133.6
    0.1216              -30.99          26.65          59.67          43.66          4.035         -3.632          1.755          54.87         -59.68          66.08          133.6
     0.139               -31.0          26.66          59.66          43.66          4.036         -3.634          1.786          54.87         -59.68          66.07          133.6
    0.1563               -31.0          26.66          59.65          43.66          4.038         -3.636          1.818          54.86         -59.69          66.06          133.6
    0.1737               -31.0          26.66          59.64          43.65          4.039         -3.638          1.853          54.86         -59.69          66.04          133.6
    0.1911              -31.01          26.67          59.63          43.65          4.041          -3.64          1.891          54.86          -59.7          66.03          133.6
    0.2084              -31.01          26.67          59.61          43.65          4.042         -3.642          1.931          54.85          -59.7          66.02          133.6
    0.2258              -31.01          26.67           59.6          43.64          4.044         -3.645          1.975          54.85         -59.71           66.0          133.6
    0.2432              -31.02          26.68          59.58          43.64          4.046         -3.648          2.022          54.84         -59.72          65.99          133.7
    0.2605              -31.02          26.68          59.57          43.64          4.048         -3.651          2.073          54.84         -59.73          65.97          133.7
    0.2779              -31.02          26.68          59.55          43.63          4.051         -3.654          2.129          54.83         -59.74          65.95          133.7
    0.2953              -31.03          26.69          59.53          43.63          4.053         -3.657           2.19          54.83         -59.75          65.93          133.7
    0.3127              -31.03          26.69           59.5          43.63          4.056         -3.661          2.256          54.82         -59.76          65.91          133.7
      0.33              -31.04           26.7          59.48          43.62          4.059         -3.665          2.329          54.81         -59.77          65.88          133.7
    0.3474              -31.05          26.71          59.45          43.61          4.062          -3.67          2.409          54.81         -59.78          65.86          133.7
    0.3648              -31.05          26.71          59.42          43.61          4.066         -3.675          2.497           54.8          -59.8          65.83          133.7
    0.3821              -31.06          26.72          59.39           43.6           4.07         -3.681          2.593          54.79         -59.81           65.8          133.7
    0.3995              -31.07          26.73          59.36           43.6          4.074         -3.687          2.701          54.78         -59.83          65.76          133.7
    0.4169              -31.08          26.74          59.32          43.59          4.079         -3.694           2.82          54.77         -59.85          65.72          133.7
    0.4342              -31.09          26.75          59.27          43.58          4.085         -3.702          2.954          54.76         -59.87          65.68          133.7
    0.4516               -31.1          26.76          59.22          43.57          4.091          -3.71          3.103          54.74          -59.9          65.63          133.7
     0.469              -31.12          26.77          59.16          43.56          4.098          -3.72          3.271          54.73         -59.92          65.57          133.8
    0.4864              -31.13          26.79           59.1          43.54          4.106         -3.731          3.461          54.71         -59.95          65.51          133.8
    0.5037              -31.15          26.81          59.03          43.53          4.115         -3.744          3.676          54.69         -59.99          65.43          133.8
    0.5211              -31.17          26.83          58.95          43.51          4.125         -3.758          3.922          54.67         -60.03          65.35          133.8
    0.5385              -31.19          26.85          58.85          43.49          4.137         -3.774          4.204          54.64         -60.08          65.26          133.8
    0.5558              -31.22          26.87          58.74          43.47          4.151         -3.793           4.53          54.61         -60.13          65.15          133.9
    0.5732              -31.25           26.9          58.62          43.45          4.166         -3.815          4.908          54.57         -60.19          65.02          133.9
    0.5906              -31.28          26.94          58.47          43.41          4.185         -3.841          5.351          54.53         -60.26          64.87          133.9
    0.6079              -31.32          26.98          58.29          43.38          4.207         -3.871          5.874          54.48         -60.35           64.7          134.0
    0.6253              -31.37          27.03          58.08          43.34          4.232         -3.908          6.494          54.42         -60.45          64.49          134.0
    0.6427              -31.43          27.09          57.83          43.29          4.263         -3.951          7.238          54.36         -60.57          64.24          134.1
      0.66              -31.51          27.16          57.53          43.23          4.301         -4.003          8.138          54.27         -60.72          63.94          134.2
    0.6774              -31.59          27.25          57.16          43.15          4.347         -4.067          9.237          54.17          -60.9          63.58          134.3
    0.6948               -31.7          27.36          56.71          43.06          4.403         -4.146          10.59          54.04         -61.12          63.12          134.4
    0.7122              -31.84          27.49          56.14          42.94          4.474         -4.244          12.29          53.88          -61.4          62.56          134.5
    0.7295              -32.01          27.66          55.43           42.8          4.562         -4.368          14.42          53.68         -61.74          61.84          134.7
    0.7469              -32.23          27.87          54.52          42.61          4.675         -4.525          17.13          53.43         -62.19          60.94          134.9
    0.7643               -32.5          28.15          53.36          42.38           4.82         -4.727          20.59          53.11         -62.75          59.78          135.2
    0.7816              -32.86           28.5          51.86          42.08          5.005         -4.985          25.05          52.69         -63.48          58.29          135.6
     0.799              -33.31          28.95          49.96          41.69          5.242         -5.316          30.73          52.16         -64.41          56.39          136.0
    0.8164              -33.89          29.52          47.56           41.2          5.539         -5.731          37.88          51.49         -65.58           54.0          136.6
    0.8337              -34.58          30.21          44.64          40.61          5.902         -6.237          46.59          50.67          -67.0          51.09          137.4
    0.8511              -35.39          31.01          41.25          39.93          6.323         -6.824          56.68          49.73         -68.65          47.72          138.2
    0.8685              -36.27          31.88          37.59          39.18          6.778         -7.459          67.62          48.71         -70.43          44.06          139.1
    0.8859              -37.14          32.74          33.92          38.44          7.233         -8.094          78.55          47.68         -72.22          40.41          140.0
    0.9032              -37.95          33.55          30.54          37.75          7.654         -8.681          88.65          46.74         -73.87          37.04          140.9
    0.9206              -38.65          34.24          27.62          37.16          8.016         -9.187          97.36          45.92         -75.29          34.12          141.6
